{"title":"Visible Scars 2012 BRRip 720p x264 AAC - PRiSTiNE [P2PDL]","uid":8704622,"size":690330496,"categoryP":"video","categoryS":"hd___movies","magnet":"?xt=urn:btih:b2a82d42699cd640679c61c96dbfd5a4ad864709&amp;dn=Visible+Scars+2012+BRRip+720p+x264+AAC+-+PRiSTiNE+%5BP2PDL%5D&amp;tr=udp%3A%2F%2Ftracker.openbittorrent.com%3A80&amp;tr=udp%3A%2F%2Fopen.demonii.com%3A1337&amp;tr=udp%3A%2F%2Ftracker.coppersurfer.tk%3A6969&amp;tr=udp%3A%2F%2Fexodus.desync.com%3A6969","seeders":2,"leechers":0,"uploader":"ValidusVyto","files":-1,"time":1374117862,"description":"_______ Visit us at our Semi Public Bittorrent Community ________\n  &lt;a href=&quot;\nhttp://p2pdl.com&quot; rel=&quot;nofollow&quot; target=&quot;_NEW&quot;&gt;\nhttp://p2pdl.com&lt;/a&gt;  _____________________________ &lt;a href=&quot; http://p2pdl.com&quot; rel=&quot;nofollow&quot; target=&quot;_NEW&quot;&gt; http://p2pdl.com&lt;/a&gt;\n\n\nVisible Scars 2012 BRRip 720p x264 AAC - PRiSTiNE\n\n\nGenre: Thriller\nPlot: Seventeen years ago, MIKE GILLIS killed a new mother of twin girls and\ntook the babies to a house in the woods, claiming them as his own to appease\nhis wife's desire for kids. After Mike ...\nDirector: Richard Turke\nStars: Jillian Murray, Tom Sizemore, Hanna Hall.\nRated: N/a\n\n\nIMDb: &lt;a href=&quot;\nhttp://www.imdb.com/title/tt1684567/&quot; rel=&quot;nofollow&quot; target=&quot;_NEW&quot;&gt;\nhttp://www.imdb.com/title/tt1684567/&lt;/a&gt;\n\n\nFormat                         : MPEG-4\nFile size                      : 651 MiB\nDuration                       : 1h 41mn\nOverall bit rate               : 901 Kbps\nSource                         : 720p.BluRay.x264-LCHD\n\nVideo\nFormat                         : AVC\nBit rate                       : 818 Kbps\nWidth                          : 1 280 pixels\nHeight                         : 720 pixels\nDisplay aspect ratio           : 16:9\nFrame rate mode                : Constant\nFrame rate                     : 23.976 fps\nStream size                    : 591 MiB (91%)\nWriting library                : x264 core 130 r2273\n\nAudio\nFormat                         : AAC\nBit rate mode                  : Variable\nBit rate                       : 80.0 Kbps\nChannel(s)                     : 2 channels\nChannel positions              : Front: L R\nSampling rate                  : 48.0 KHz\nStream size                    : 57.9 MiB (9%)\nLanguage                       : English\n\nSubtitle                       : N/a\n &lt;a href=&quot;\nhttp://someimage.com/odh5erp&quot; rel=&quot;nofollow&quot; target=&quot;_NEW&quot;&gt;\nhttp://someimage.com/odh5erp&lt;/a&gt; &lt;a href=&quot;\nhttp://someimage.com/VVTwgIR&quot; rel=&quot;nofollow&quot; target=&quot;_NEW&quot;&gt;\nhttp://someimage.com/VVTwgIR&lt;/a&gt; &lt;a href=&quot;\nhttp://someimage.com/3idxAZa&quot; rel=&quot;nofollow&quot; target=&quot;_NEW&quot;&gt;\nhttp://someimage.com/3idxAZa&lt;/a&gt; &lt;a href=&quot;\nhttp://someimage.com/yVY2WwR&quot; rel=&quot;nofollow&quot; target=&quot;_NEW&quot;&gt;\nhttp://someimage.com/yVY2WwR&lt;/a&gt; &lt;a href=&quot;\nhttp://someimage.com/mmnBqux&quot; rel=&quot;nofollow&quot; target=&quot;_NEW&quot;&gt;\nhttp://someimage.com/mmnBqux&lt;/a&gt; &lt;a href=&quot;\nhttp://someimage.com/uLMfwwC&quot; rel=&quot;nofollow&quot; target=&quot;_NEW&quot;&gt;\nhttp://someimage.com/uLMfwwC&lt;/a&gt; &lt;a href=&quot;\nhttp://someimage.com/D4jwcnT&quot; rel=&quot;nofollow&quot; target=&quot;_NEW&quot;&gt;\nhttp://someimage.com/D4jwcnT&lt;/a&gt; &lt;a href=&quot;\nhttp://someimage.com/DcU1YIU&quot; rel=&quot;nofollow&quot; target=&quot;_NEW&quot;&gt;\nhttp://someimage.com/DcU1YIU&lt;/a&gt;\n\n\n----------------------------------------------------------------------------------------------------\n\n\nEncoded using revolutionary 10bit encoding, which enables us to provide you more crispier \nand sharper images at small sizes, just make sure you follow our instructions without a fault.\nRecommend to you to use latest version of VLC player. Install K-Lite Codec Pack or shark007 codecs\nin case of any kind of problem in playback (For non-VLC Media Player users). Alternatively, install\nCore AVC codecs, the fastest decoder that there is coupled with Community Center Codec Pack and play\non Windows Media Player Classic. Check sample to be sure.\nEnjoy!\n\nEncoder Notes:Looking For Early Access To Anything You Can Provide DVDScr, R5, DVDR, BluRay, Direct\nAudio, Music Releases and Seedboxes. We require dedicated servers, so as to do more \nand fast releases of movies.\nIf You Got anything to offer please contact us at &quot;&lt;a class=&quot;__cf_email__&quot; href=&quot;/cdn-cgi/l/email-protection&quot; data-cfemail=&quot;32424055725a47415a1c515d5f&quot;&gt;[email&amp;#160;protected]&lt;/a&gt;&lt;script cf-hash='f9e31' type=&quot;text/javascript&quot;&gt;\n/* &lt;![CDATA[ */!function(){try{var t=&quot;currentScript&quot;in document?document.currentScript:function(){for(var t=document.getElementsByTagName(&quot;script&quot;),e=t.length;e--;)if(t[e].getAttribute(&quot;cf-hash&quot;))return t[e]}();if(t&amp;&amp;t.previousSibling){var e,r,n,i,c=t.previousSibling,a=c.getAttribute(&quot;data-cfemail&quot;);if(a){for(e=&quot;&quot;,r=parseInt(a.substr(0,2),16),n=2;a.length-n;n+=2)i=parseInt(a.substr(n,2),16)^r,e+=String.fromCharCode(i);e=document.createTextNode(e),c.parentNode.replaceChild(e,c)}}}catch(u){}}();/* ]]&gt; */&lt;/script&gt;&quot;.\n\nFace book Fan Page:  \nSearch P2PDL on FB.","torrent":{"xt":"urn:btih:b2a82d42699cd640679c61c96dbfd5a4ad864709","amp;dn":"Visible+Scars+2012+BRRip+720p+x264+AAC+-+PRiSTiNE+%5BP2PDL%5D","amp;tr":["udp%3A%2F%2Ftracker.openbittorrent.com%3A80","udp%3A%2F%2Fopen.demonii.com%3A1337","udp%3A%2F%2Ftracker.coppersurfer.tk%3A6969","udp%3A%2F%2Fexodus.desync.com%3A6969"],"infoHash":"b2a82d42699cd640679c61c96dbfd5a4ad864709","infoHashBuffer":{"type":"Buffer","data":[178,168,45,66,105,156,214,64,103,156,97,201,109,191,213,164,173,134,71,9]},"announce":[],"urlList":[]}}